<?xml version="1.0" standalone="no"?>
<!DOCTYPE svg PUBLIC "-//W3C//DTD SVG 1.1//EN" "http://www.w3.org/Graphics/SVG/1.1/DTD/svg11.dtd" >
<svg xmlns="http://www.w3.org/2000/svg">
<metadata>
This is a custom SVG webfont generated by Font Squirrel.
Copyright   : HTF Gotham Copr 2000 The Hoefler Type Foundry Inc Info wwwtypographycom
</metadata>
<defs>
<font id="GothamLight" horiz-adv-x="1044" >
<font-face units-per-em="2048" ascent="1638" descent="-410" />
<missing-glyph horiz-adv-x="626" />
<glyph unicode=" "  horiz-adv-x="626" />
<glyph unicode="&#x09;" horiz-adv-x="626" />
<glyph unicode="&#xa0;" horiz-adv-x="626" />
<glyph unicode="!" horiz-adv-x="526" d="M195 0v178h137v-178h-137zM203 1317v145h121v-145l-31 -934h-60z" />
<glyph unicode="&#x22;" horiz-adv-x="856" d="M141 932l74 530h135v-10l-147 -520h-62zM518 932l74 530h135v-10l-147 -520h-62z" />
<glyph unicode="#" horiz-adv-x="1462" d="M102 391v98h271l84 492h-271v98h289l64 383h100l-66 -383h435l63 383h100l-63 -383h250v-98h-268l-84 -492h268v-98h-287l-65 -391h-101l68 391h-434l-66 -391h-100l65 391h-252zM473 489h432l84 492h-432z" />
<glyph unicode="$" horiz-adv-x="1318" d="M125 225l70 82q203 -190 430 -209v594q-233 51 -338 143.5t-105 247.5q0 160 124 267.5t315 111.5v121h100v-125q213 -16 403 -172l-69 -80q-154 135 -338 158v-588q238 -49 344 -142t106 -247q0 -166 -123.5 -272.5t-322.5 -114.5v-205h-100v207q-271 22 -496 223z M289 1092q0 -111 70.5 -178.5t265.5 -114.5v569q-150 -2 -243 -80.5t-93 -195.5zM717 94q154 4 249 83t95 202q0 113 -73 179.5t-271 111.5v-576z" />
<glyph unicode="%" horiz-adv-x="1720" d="M115 1103.5q0 153.5 91 264.5t232.5 111t230.5 -109.5t89 -261.5q0 -156 -90 -266.5t-234 -110.5q-139 0 -229 109.5t-90 263zM223 1108q0 -125 62.5 -206t152.5 -81q92 0 151.5 80t59.5 203t-62.5 204t-152.5 81q-92 0 -151.5 -80t-59.5 -201zM268 0l1073 1462h113 l-1073 -1462h-113zM963 354q0 156 91 266.5t232 110.5t230.5 -109.5t89.5 -263t-90.5 -264t-233.5 -110.5q-139 0 -229 109t-90 261zM1071 358.5q0 -122.5 62.5 -203.5t152.5 -81q92 0 151.5 79.5t59.5 200.5q0 125 -62.5 206t-152.5 81q-92 0 -151.5 -80t-59.5 -202.5z" />
<glyph unicode="&#x26;" horiz-adv-x="1452" d="M102 387q0 289 379 430q-88 96 -126 171t-38 165q0 143 103.5 238.5t263.5 95.5q141 0 238.5 -93.5t97.5 -226.5q0 -256 -361 -379l385 -395q100 139 191 355l98 -39q-106 -242 -217 -390l268 -278l-86 -70l-251 260q-217 -252 -496 -251q-195 0 -322 113.5t-127 293.5z M211 391q0 -137 97.5 -227t244.5 -90q227 0 424 229l-432 447q-166 -55 -250 -150.5t-84 -208.5zM426 1157q0 -72 36 -135.5t134 -167.5q315 100 315 309q0 98 -67.5 165t-163.5 67q-113 0 -183.5 -68t-70.5 -170z" />
<glyph unicode="'" horiz-adv-x="479" d="M141 932l74 530h135v-10l-147 -520h-62z" />
<glyph unicode="(" horiz-adv-x="897" d="M147 599q0 280 149.5 508t430.5 386l43 -68q-514 -315 -514 -825t514 -825l-43 -70q-281 160 -430.5 387t-149.5 507z" />
<glyph unicode=")" horiz-adv-x="897" d="M127 -225q514 315 514 825t-514 825l45 68q279 -158 428.5 -386t149.5 -508t-149.5 -507t-428.5 -387z" />
<glyph unicode="*" horiz-adv-x="897" d="M156 1040l247 117l-247 117l47 78l221 -152l-18 266h88l-19 -266l221 152l45 -78l-245 -117l245 -117l-45 -77l-221 151l19 -266h-88l18 266l-221 -151z" />
<glyph unicode="+" horiz-adv-x="1335" d="M164 686v100h452v449h105v-449h453v-100h-453v-450h-105v450h-452z" />
<glyph unicode="," horiz-adv-x="479" d="M111 -172q70 37 95 75t21 97h-55v178h137v-155q0 -98 -40 -154.5t-134 -91.5z" />
<glyph unicode="-" horiz-adv-x="851" d="M145 561v119h562v-119h-562z" />
<glyph unicode="." horiz-adv-x="479" d="M172 0v178h137v-178h-137z" />
<glyph unicode="/" d="M-37 -268l985 1935h103l-985 -1935h-103z" />
<glyph unicode="0" horiz-adv-x="1482" d="M135 729q0 205 74 376t214 276.5t320.5 105.5t320.5 -104.5t212 -274.5t72 -375t-74 -376t-214 -276.5t-320.5 -105.5t-319.5 104.5t-212 274.5t-73 375zM248 733q0 -268 138 -463.5t357.5 -195.5t355.5 193.5t136 461.5t-138.5 464t-357.5 196t-355 -194t-136 -462z" />
<glyph unicode="1" horiz-adv-x="698" d="M63 1350l334 123h84v-1473h-106v1360l-283 -96z" />
<glyph unicode="2" horiz-adv-x="1230" d="M100 0v82l545 491q182 166 253 275.5t71 224.5q0 139 -97.5 226t-232.5 87q-133 0 -232.5 -66.5t-195.5 -203.5l-82 53q104 160 221 237t299 77q186 0 310 -115t124 -289q0 -143 -79.5 -263t-284.5 -306l-447 -406h828v-104h-1000z" />
<glyph unicode="3" horiz-adv-x="1273" d="M113 238l84 69q184 -233 454 -233q152 0 257.5 91t105.5 234q0 150 -127 235t-330 85h-78l-28 59l503 582h-766v102h916v-78l-496 -565q225 -12 371.5 -117.5t146.5 -298.5q0 -188 -140 -308t-337 -120q-333 1 -536 263z" />
<glyph unicode="4" horiz-adv-x="1386" d="M100 438l836 1035h98v-1022h238v-95h-238v-356h-104v356h-793zM231 451h699v866z" />
<glyph unicode="5" horiz-adv-x="1263" d="M119 211l78 78q215 -215 438 -215q172 0 282.5 106.5t110.5 262t-111.5 253t-289.5 97.5q-162 0 -330 -93l-84 54l41 708h821v-104h-725l-35 -547q164 80 324 80q215 0 358.5 -125t143.5 -320q0 -207 -144.5 -339t-365.5 -132q-141 0 -275.5 66t-236.5 170z" />
<glyph unicode="6" horiz-adv-x="1339" d="M133 694q0 340 164 566.5t432 226.5q215 0 422 -168l-70 -84q-172 154 -360 154q-221 0 -354 -211q-125 -199 -126 -509q0 -19 1 -38q160 272 458 272q207 0 355.5 -127t148.5 -319q0 -209 -147.5 -345.5t-364.5 -136.5q-227 0 -373 146q-96 96 -141 225t-45 348z M287 442q0 -158 117.5 -263t295.5 -105q172 0 281 109.5t109 269.5q0 154 -112 254t-285 100t-289.5 -111t-116.5 -254z" />
<glyph unicode="7" horiz-adv-x="1224" d="M141 1358v104h971v-80l-668 -1382h-118l663 1358h-848z" />
<glyph unicode="8" horiz-adv-x="1314" d="M115 393q0 125 90 220.5t233 142.5q-272 111 -272 344q0 166 147.5 274.5t344 108.5t345 -108.5t148.5 -274.5q0 -233 -274 -344q145 -47 234 -142.5t89 -220.5q0 -182 -154.5 -297.5t-387 -115.5t-388 115.5t-155.5 297.5zM227 389q0 -131 117 -221t313.5 -90t313 90 t116.5 221q0 135 -123.5 225.5t-305 90.5t-306.5 -90.5t-125 -225.5zM279 1100q0 -135 110.5 -219t269 -84t269 84t110.5 219q0 123 -109.5 203.5t-270 80.5t-270 -80.5t-109.5 -203.5z" />
<glyph unicode="9" horiz-adv-x="1339" d="M137 995q0 205 144.5 348.5t369.5 143.5q223 0 373 -148q184 -184 184 -573q0 -344 -170 -567.5t-426 -223.5q-225 0 -440 181l68 84q186 -166 374 -166q221 0 360 213q127 196 127 488q0 26 -1 52q-158 -283 -457 -282q-219 0 -362.5 128.5t-143.5 321.5zM250 999 q0 -156 112.5 -257t284.5 -101q180 0 294 113.5t114 261.5q0 158 -118 265.5t-298 107.5q-174 0 -281.5 -115t-107.5 -275z" />
<glyph unicode=":" horiz-adv-x="499" d="M182 0v178h137v-178h-137zM182 889v176h137v-176h-137z" />
<glyph unicode=";" horiz-adv-x="499" d="M121 -172q70 37 95 75q22 33 22 81v16h-56v178h137v-155q0 -98 -39.5 -154.5t-134.5 -91.5zM182 889v176h137v-176h-137z" />
<glyph unicode="&#x3c;" horiz-adv-x="1335" d="M152 694v82l970 504v-113l-841 -430l841 -434v-113z" />
<glyph unicode="=" horiz-adv-x="1335" d="M195 446v107h948v-107h-948zM195 918v106h948v-106h-948z" />
<glyph unicode="&#x3e;" horiz-adv-x="1335" d="M215 190v113l842 430l-842 434v113l969 -504v-82z" />
<glyph unicode="?" horiz-adv-x="1114" d="M72 1233q96 121 210.5 184.5t270.5 63.5q203 0 329 -118t126 -292q0 -186 -125 -295.5t-320 -132.5l-18 -260h-66l-28 338l10 10q205 4 320.5 94t115.5 242q0 133 -95 225t-253 92q-227 0 -404 -215zM442 0v178h140v-178h-140z" />
<glyph unicode="@" horiz-adv-x="2045" d="M111 571.5q0 376.5 266 646t649 269.5q379 0 645 -246t266 -582q0 -248 -115.5 -377.5t-265.5 -129.5q-109 0 -183.5 52t-100.5 142q-156 -195 -357 -194q-156 0 -263 104t-107 268q0 215 151.5 367.5t335.5 152.5q213 0 311 -186l29 158l101 -12l-78 -443 q-18 -111 -19 -149q0 -90 49.5 -137.5t139.5 -47.5q121 0 211 111t90 321q0 190 -107.5 364.5t-304.5 286t-428 111.5q-360 0 -602 -247.5t-242 -602t243 -599t617 -244.5q281 0 523 143l30 -53q-256 -156 -553 -156q-397 0 -664 266.5t-267 643zM653 532q0 -131 77 -206.5 t202 -75.5q145 0 261 125t116 278q0 123 -79 207t-198 84q-147 0 -263 -120t-116 -292z" />
<glyph unicode="A" horiz-adv-x="1648" d="M92 0l680 1473h105l682 -1473h-119l-187 410h-862l-186 -410h-113zM436 508h772l-385 846z" />
<glyph unicode="B" horiz-adv-x="1507" d="M217 0v1462h604q213 0 343 -98t130 -260v-4q0 -248 -247 -348q330 -86 329 -349v-4q0 -182 -143 -290.5t-381 -108.5h-635zM326 100h530q188 0 299 81t111 218v4q0 135 -115 210t-330 75h-495v-588zM326 788h483q168 0 271.5 79t103.5 220v5q0 125 -96.5 197.5 t-268.5 72.5h-493v-574z" />
<glyph unicode="C" horiz-adv-x="1540" d="M152 727v4q0 313 208.5 534.5t522.5 221.5q182 0 313 -59.5t256 -174.5l-78 -79q-221 215 -493 215q-262 0 -438.5 -188.5t-176.5 -465.5v-4q0 -279 178.5 -468t438.5 -189q154 0 270.5 56t232.5 171l74 -72q-127 -125 -263 -189.5t-318 -64.5q-311 0 -519 217.5 t-208 534.5z" />
<glyph unicode="D" horiz-adv-x="1632" d="M217 0v1462h488q340 0 558 -207.5t218 -519.5v-4q0 -313 -218.5 -522t-557.5 -209h-488zM326 100h379q299 0 481 179.5t182 447.5v4q0 268 -182 449.5t-481 181.5h-379v-1262z" />
<glyph unicode="E" horiz-adv-x="1398" d="M217 0v1462h1040v-100h-931v-574h837v-100h-837v-588h942v-100h-1051z" />
<glyph unicode="F" horiz-adv-x="1370" d="M217 0v1462h1030v-100h-921v-600h827v-100h-827v-662h-109z" />
<glyph unicode="G" horiz-adv-x="1636" d="M152 727v4q0 307 202 531q202 225 520 225q170 0 294 -48t241 -145l-70 -80q-201 174 -471 175q-260 0 -431 -191.5t-171 -462.5v-4q0 -291 169 -475t458 -184q131 0 255 47t210 119v419h-490v101h594v-563q-109 -96 -258 -158t-315 -62q-338 0 -537.5 216.5 t-199.5 535.5z" />
<glyph unicode="H" horiz-adv-x="1587" d="M217 0v1462h109v-676h936v676h108v-1462h-108v686h-936v-686h-109z" />
<glyph unicode="I" horiz-adv-x="571" d="M231 0v1462h109v-1462h-109z" />
<glyph unicode="J" horiz-adv-x="1144" d="M78 252l90 57q70 -119 152.5 -175t205.5 -56q139 0 228.5 102.5t89.5 286.5v995h108v-985q0 -240 -120.5 -368.5t-311.5 -128.5q-290 0 -442 272z" />
<glyph unicode="K" horiz-adv-x="1492" d="M217 0v1462h109v-960l931 960h148l-639 -645l668 -817h-144l-600 739l-364 -366v-373h-109z" />
<glyph unicode="L" horiz-adv-x="1292" d="M217 0v1462h109v-1362h858v-100h-967z" />
<glyph unicode="M" horiz-adv-x="1812" d="M217 0v1462h102l588 -864l586 864h102v-1462h-108v1270l-578 -842h-8l-579 842v-1270h-105z" />
<glyph unicode="N" horiz-adv-x="1648" d="M217 0v1462h102l1010 -1272v1272h105v-1462h-82l-1030 1298v-1298h-105z" />
<glyph unicode="O" horiz-adv-x="1775" d="M152 727v4q0 309 206.5 532.5t531 223.5t529.5 -221.5t205 -530.5q1 -1 1 -2t-1 -2q0 -309 -207 -532.5t-531.5 -223.5t-529 221.5t-204.5 530.5zM266 731q0 -274 178.5 -465.5t445.5 -191.5t443 189.5t176 463.5v4q0 274 -178 466t-445.5 192t-443.5 -189.5t-176 -464.5 v-4z" />
<glyph unicode="P" horiz-adv-x="1394" d="M217 0v1462h531q244 0 393 -118.5t149 -327.5v-4q0 -221 -163.5 -344t-405.5 -123h-395v-545h-109zM326 645h401q205 0 330 98.5t125 262.5v4q0 168 -120 260t-323 92h-413v-717z" />
<glyph unicode="Q" horiz-adv-x="1775" d="M152 727v4q0 309 206.5 532.5t531 223.5t529.5 -221.5t205 -530.5q2 -2 0 -4q0 -301 -192 -516l208 -176l-77 -82l-205 184q-197 -166 -473 -166q-324 0 -528.5 221.5t-204.5 530.5zM266 731q0 -274 178.5 -465.5t446.5 -191.5q223 0 387 137l-283 242l76 86l281 -254 q158 186 157 442v4q0 274 -178 466t-445.5 192t-443.5 -189.5t-176 -464.5v-4z" />
<glyph unicode="R" horiz-adv-x="1509" d="M217 0v1462h614q236 0 379.5 -115.5t143.5 -299.5v-5q0 -178 -117 -284.5t-311 -132.5l481 -625h-137l-465 606h-479v-606h-109zM326 705h493q188 0 307 89t119 244v4q0 147 -110.5 233.5t-309.5 86.5h-499v-657z" />
<glyph unicode="S" horiz-adv-x="1335" d="M123 213l72 82q123 -115 243.5 -166t280.5 -51q162 0 265 82t103 209v4q0 121 -86 191.5t-327 119.5q-262 51 -377 147.5t-115 262.5v6q0 162 133.5 272.5t335.5 110.5q156 0 271.5 -43t230.5 -133l-70 -86q-188 164 -436 163q-158 0 -257 -78.5t-99 -195.5v-4 q0 -125 88 -197.5t338 -122.5q252 -53 365.5 -148t113.5 -255v-4q0 -176 -135 -287.5t-348 -111.5q-328 0 -590 233z" />
<glyph unicode="T" horiz-adv-x="1351" d="M113 1362v100h1128v-100h-510v-1362h-108v1362h-510z" />
<glyph unicode="U" horiz-adv-x="1587" d="M195 608v854h108v-844q0 -258 131 -400t365 -142q227 0 356 136t129 396v854h109v-841q0 -307 -163 -475.5t-435 -168.5q-270 0 -435 165t-165 466z" />
<glyph unicode="V" horiz-adv-x="1566" d="M92 1462h121l573 -1345l574 1345h115l-644 -1472h-96z" />
<glyph unicode="W" horiz-adv-x="2301" d="M104 1462h121l461 -1300l428 1304h82l430 -1304l459 1300h113l-531 -1472h-88l-428 1270l-428 -1270h-88z" />
<glyph unicode="X" horiz-adv-x="1507" d="M106 0l584 745l-563 717h129l500 -643l497 643h127l-559 -714l580 -748h-129l-520 674l-519 -674h-127z" />
<glyph unicode="Y" horiz-adv-x="1495" d="M68 1462h135l547 -786l548 786h132l-627 -880v-582h-109v580z" />
<glyph unicode="Z" horiz-adv-x="1435" d="M141 0v61l1002 1303h-965v98h1118v-61l-999 -1303h999v-98h-1155z" />
<glyph unicode="[" horiz-adv-x="897" d="M205 -272v1734h569v-80h-473v-1575h473v-79h-569z" />
<glyph unicode="\" d="M-6 1667h102l985 -1935h-102z" />
<glyph unicode="]" horiz-adv-x="897" d="M123 -193h475v1575h-475v80h571v-1734h-571v79z" />
<glyph unicode="^" d="M145 1030l332 438h90l332 -438h-111l-268 348l-268 -348h-107z" />
<glyph unicode="_" horiz-adv-x="1253" d="M-4 -242h1261v-92h-1261v92z" />
<glyph unicode="`" d="M328 1458l127 64l184 -279h-88z" />
<glyph unicode="a" horiz-adv-x="1198" d="M106 309v4q0 164 127 255t338 91q180 0 355 -45v45q0 160 -92.5 243t-259 83t-334.5 -84l-37 88q199 92 379 92q209 0 326.5 -107.5t117.5 -309.5v-664h-100v178q-145 -203 -408 -203q-164 0 -288 88t-124 246zM215 315q0 -111 91 -177t218 -66q168 0 286 92t118 235v121 q-188 47 -363 47q-166 0 -258 -67.5t-92 -180.5v-4z" />
<glyph unicode="b" horiz-adv-x="1378" d="M195 0v1526h102v-699q174 262 438 263q205 0 361.5 -152t156.5 -401v-5q0 -248 -156.5 -402.5t-361.5 -154.5q-272 0 -438 254v-229h-102zM291 530q0 -199 130 -327.5t304 -128.5q180 0 299 122.5t119 331.5v4q0 205 -122 332t-296 127t-304 -130t-130 -326v-5z" />
<glyph unicode="c" horiz-adv-x="1191" d="M121 528v4q0 225 158.5 391.5t384.5 166.5q240 0 426 -195l-72 -76q-172 176 -356 176q-180 0 -305.5 -133t-125.5 -325v-5q0 -193 128 -326.5t311 -133.5q199 0 358 176l72 -62q-186 -211 -436 -211q-227 0 -385 164t-158 389z" />
<glyph unicode="d" horiz-adv-x="1378" d="M125 528v4q0 248 156.5 403t361.5 155q272 0 438 -254v690h103v-1526h-103v238q-172 -262 -438 -263q-205 0 -361.5 152.5t-156.5 400.5zM236 532q0 -205 122.5 -331.5t295.5 -126.5t303 130t130 326v5q0 199 -130 327.5t-304 128.5q-178 0 -297.5 -123t-119.5 -331v-5z " />
<glyph unicode="e" horiz-adv-x="1218" d="M121 530v5q0 233 145.5 394t360.5 161q219 0 354 -159t135 -399v-4q0 -20 -2 -36h-885q14 -193 135 -306.5t283 -113.5q209 0 367 166l69 -62q-184 -201 -440 -201q-215 0 -368.5 156.5t-153.5 398.5zM229 584h777q-14 174 -111.5 293.5t-271.5 119.5q-158 0 -269 -118.5 t-125 -294.5z" />
<glyph unicode="f" horiz-adv-x="755" d="M102 971v94h154v104q0 172 84 267.5t233 95.5q86 0 160 -27v-96q-88 29 -160 29q-215 0 -215 -271v-102h373v-94h-373v-971h-102v971h-154z" />
<glyph unicode="g" horiz-adv-x="1378" d="M125 582v4q0 221 154.5 362.5t357.5 141.5q279 0 444 -238v213h103v-899q0 -240 -144 -372q-142 -132 -378 -132q-268 0 -488 162l59 84q195 -150 431 -150q190 0 303.5 106.5t113.5 307.5v154q-170 -246 -444 -246q-203 0 -357.5 140.5t-154.5 361.5zM236 586 q0 -176 121.5 -292t289.5 -116q174 0 307 115t133 291v4q0 176 -132 289.5t-308 113.5q-172 0 -291.5 -110.5t-119.5 -290.5v-4z" />
<glyph unicode="h" horiz-adv-x="1280" d="M195 0v1526h102v-660q127 223 385 224q197 0 311.5 -122t114.5 -317v-651h-102v633q0 168 -90.5 266t-249 98t-264 -108.5t-105.5 -272.5v-616h-102z" />
<glyph unicode="i" horiz-adv-x="518" d="M197 1343v140h127v-140h-127zM209 0v1065h102v-1065h-102z" />
<glyph unicode="j" horiz-adv-x="518" d="M-2 -242q37 -6 84 -6q57 0 92 37t35 111v1165h102v-1159q0 -121 -60.5 -183.5t-166.5 -62.5q-45 0 -86 8v90zM197 1343v140h127v-140h-127z" />
<glyph unicode="k" horiz-adv-x="1169" d="M195 0v1526h102v-1143l659 682h136l-465 -471l481 -594h-131l-422 520l-258 -262v-258h-102z" />
<glyph unicode="l" horiz-adv-x="518" d="M209 0v1526h102v-1526h-102z" />
<glyph unicode="m" horiz-adv-x="1986" d="M195 0v1065h102v-191q61 100 143 158t211 58q252 0 361 -230q133 229 383 230q188 0 298.5 -121t110.5 -324v-645h-102v633q0 172 -83 268t-233 96q-139 0 -237 -102t-98 -274v-621h-103v639q0 166 -85 262t-226 96t-240.5 -111.5t-99.5 -271.5v-614h-102z" />
<glyph unicode="n" horiz-adv-x="1280" d="M195 0v1065h102v-199q127 223 385 224q197 0 311.5 -122t114.5 -317v-651h-102v633q0 168 -90.5 266t-249 98t-264 -108.5t-105.5 -272.5v-616h-102z" />
<glyph unicode="o" horiz-adv-x="1335" d="M121 528v4q0 227 157.5 392.5t392 165.5t390.5 -163t156 -390v-5q0 -227 -158 -392t-392.5 -165t-390 163t-155.5 390zM231 532q0 -193 128 -326.5t311 -133.5q188 0 312 133t124 323v4q0 193 -128 328t-312 135q-186 0 -310.5 -134t-124.5 -324v-5z" />
<glyph unicode="p" horiz-adv-x="1378" d="M195 -334v1399h102v-238q174 262 438 263q205 0 361.5 -152t156.5 -401v-5q0 -248 -156.5 -402.5t-361.5 -154.5q-272 0 -438 254v-563h-102zM291 530q0 -199 130 -327.5t304 -128.5q180 0 299 122.5t119 331.5v4q0 205 -122 332t-296 127t-304 -130t-130 -326v-5z" />
<glyph unicode="q" horiz-adv-x="1378" d="M125 528v4q0 248 156.5 403t361.5 155q272 0 438 -254v229h103v-1399h-103v572q-172 -262 -438 -263q-205 0 -361.5 152.5t-156.5 400.5zM236 532q0 -205 122.5 -331.5t295.5 -126.5t303 130t130 326v5q0 199 -130 327.5t-304 128.5q-178 0 -297.5 -123t-119.5 -331v-5z " />
<glyph unicode="r" horiz-adv-x="835" d="M195 0v1065h102v-303q63 147 190 236q119 83 261 84q10 0 20 -1v-112h-10q-195 0 -328 -141.5t-133 -391.5v-436h-102z" />
<glyph unicode="s" horiz-adv-x="1036" d="M102 133l62 82q180 -139 381 -139q111 0 184.5 56t73.5 147v4q0 86 -73 129t-210 84q-74 20 -106.5 30.5t-94 38t-89 53t-52 70.5t-24.5 100v5q0 129 98 210.5t254 81.5q203 0 377 -116l-54 -86q-162 106 -327 106q-109 0 -176.5 -52t-67.5 -132v-4q0 -35 18.5 -63.5 t42 -48t68.5 -39t78 -30t90 -26.5q80 -25 130 -43.5t107.5 -53t86 -86t28.5 -116.5v-4q0 -141 -105.5 -226t-262.5 -85q-115 0 -233 42.5t-204 110.5z" />
<glyph unicode="t" horiz-adv-x="835" d="M96 971v94h154v340h102v-340h375v-94h-375v-686q0 -207 213 -207q74 0 158 37v-97q-82 -37 -174 -36q-131 0 -215 73.5t-84 218.5v697h-154z" />
<glyph unicode="u" horiz-adv-x="1280" d="M174 414v651h102v-633q0 -166 89.5 -264t248 -98t264 107.5t105.5 271.5v616h102v-1065h-102v199q-127 -223 -383 -224q-199 0 -312.5 122t-113.5 317z" />
<glyph unicode="v" horiz-adv-x="1214" d="M86 1065h119l403 -950l408 950h114l-479 -1073h-88z" />
<glyph unicode="w" horiz-adv-x="1798" d="M102 1065h115l322 -936l321 940h82l322 -940l321 936h111l-389 -1073h-88l-318 913l-319 -913h-88z" />
<glyph unicode="x" horiz-adv-x="1189" d="M94 0l436 543l-419 522h127l360 -451l358 451h123l-420 -520l439 -545h-129l-375 475l-377 -475h-123z" />
<glyph unicode="y" horiz-adv-x="1226" d="M82 1065h119l442 -952l385 952h113l-461 -1102q-70 -164 -155 -233.5t-201 -69.5q-106 0 -211 45l34 90q82 -39 183 -39q84 0 144.5 56.5t119.5 193.5z" />
<glyph unicode="z" horiz-adv-x="1157" d="M121 0v59l770 914h-741v92h892v-57l-768 -916h768v-92h-921z" />
<glyph unicode="{" horiz-adv-x="1001" d="M123 559v80h55q139 0 194.5 66.5t55.5 199.5v164q0 88 16.5 149.5t62.5 117t135 94t226 63.5l15 -66q-121 -33 -189.5 -62.5t-105.5 -75.5t-47.5 -95t-10.5 -137v-156q0 -133 -55 -201.5t-162 -99.5q113 -39 165 -104.5t52 -196.5v-158q0 -86 10.5 -135t47.5 -95 t105.5 -77t189.5 -61l-15 -68q-137 25 -226 63.5t-135 94t-62.5 117t-16.5 149.5v166q0 131 -55.5 197.5t-194.5 66.5h-55z" />
<glyph unicode="|" horiz-adv-x="595" d="M252 -268v1935h92v-1935h-92z" />
<glyph unicode="}" horiz-adv-x="1001" d="M119 -227q121 31 190.5 61.5t105.5 76.5t47 95t11 135v158q0 131 55.5 199.5t161.5 101.5q-113 37 -165 102.5t-52 198.5v156q0 88 -11 137t-47 95t-105.5 76t-190.5 62l14 66q139 -25 227.5 -63.5t134.5 -94t62 -117t16 -149.5v-164q0 -133 56.5 -199.5t195.5 -66.5h54 v-80h-54q-139 0 -195.5 -66.5t-56.5 -197.5v-166q0 -88 -16 -149.5t-62 -117t-134.5 -94t-227.5 -63.5z" />
<glyph unicode="~" horiz-adv-x="960" d="M172 524q29 109 70 152t104 43q43 0 139.5 -43t128.5 -43q37 0 59.5 21.5t45.5 82.5l72 -18q-31 -109 -71 -152t-106 -43q-43 0 -138 43t-130 43q-37 0 -58.5 -22.5t-45.5 -81.5z" />
<glyph unicode="&#xa1;" horiz-adv-x="526" d="M195 1284v178h137v-178h-137zM203 0v145l30 934h60l31 -934v-145h-121z" />
<glyph unicode="&#xa2;" horiz-adv-x="1212" d="M129 739q0 227 158.5 393t384.5 166h33l32 177h105l-37 -191q152 -31 295 -180l-74 -76q-133 133 -248 162l-172 -903q33 -6 74 -6q197 0 356 176l72 -62q-186 -211 -436 -211q-41 0 -80 6l-41 -202h-105l48 227q-162 57 -263.5 201.5t-101.5 322.5zM240 743 q0 -145 76.5 -263t201.5 -169l172 893h-20q-180 0 -305 -134t-125 -327z" />
<glyph unicode="&#xa3;" horiz-adv-x="1343" d="M145 0v53l181 41v543h-181v100h181v246q0 225 119.5 362.5t328.5 137.5q270 0 440 -221l-84 -66q-74 92 -154.5 140t-203.5 48q-162 0 -251 -106.5t-89 -292.5v-248h623v-100h-623v-539h782v-98h-1069z" />
<glyph unicode="&#xa4;" horiz-adv-x="1503" d="M123 512v100h174q-6 55 -6 117q0 63 10 139h-178v101h196q59 229 211 373.5t349 144.5q307 0 501 -293l-84 -55q-88 131 -183 191.5t-239 60.5q-154 0 -274.5 -117t-173.5 -305h594v-101h-612q-10 -72 -11 -135q0 -61 6 -121h617v-100h-598q51 -199 178 -319.5 t301 -120.5q231 0 406 266l77 -51q-203 -311 -489 -312q-213 0 -371.5 147.5t-212.5 389.5h-188z" />
<glyph unicode="&#xa5;" horiz-adv-x="1431" d="M68 1462h131l520 -778l522 778h125l-561 -809h409v-94h-446v-205h446v-92h-446v-262h-104v262h-445v92h445v205h-445v94h408z" />
<glyph unicode="&#xa7;" horiz-adv-x="1318" d="M135 760q0 94 84 157.5t225 81.5q-178 78 -178 222q0 119 99.5 190.5t267.5 71.5q135 0 260 -54.5t215 -144.5l-80 -74q-168 170 -405 170q-119 0 -180.5 -45t-61.5 -116.5t85 -123t296 -100.5q233 -57 327.5 -122.5t94.5 -170.5q0 -94 -83 -157.5t-227 -81.5 q180 -78 181 -221q0 -119 -100.5 -190.5t-266.5 -71.5q-137 0 -261 54t-214 144l80 74q166 -170 405 -170q119 0 180.5 45t61.5 116.5t-86 123t-297 100.5q-231 57 -326.5 123t-95.5 170zM244 768q0 -61 71.5 -110.5t255.5 -96.5q135 -33 236 -33q119 0 193.5 49.5 t74.5 116.5q0 61 -70.5 110.5t-256.5 96.5q-135 33 -234 33q-119 0 -194.5 -49t-75.5 -117z" />
<glyph unicode="&#xa8;" d="M281 1243v166h143v-166h-143zM621 1243v166h143v-166h-143z" />
<glyph unicode="&#xa9;" horiz-adv-x="1732" d="M111 729q0 311 221 534.5t536.5 223.5t535.5 -221.5t220 -532.5t-222 -534.5t-537.5 -223.5t-534.5 221.5t-219 532.5zM174 729q0 -291 197.5 -493.5t492.5 -202.5t496 204.5t201 495.5t-199 494t-494 203t-494.5 -205t-199.5 -496zM496 741.5q0 163.5 109.5 280.5 t271 117t294.5 -127l-61 -66q-113 109 -236 109q-125 0 -205.5 -91.5t-80.5 -220.5t84 -221t205 -92q127 0 241 109l58 -58q-137 -135 -302 -135q-160 0 -269 116t-109 279.5z" />
<glyph unicode="&#xaa;" horiz-adv-x="813" d="M129 612v84h526v-84h-526zM135 1049q0 92 72 144t188 52q86 0 172 -22v10q0 80 -45 120t-127 40q-78 0 -184 -50l-27 72q115 53 215 53q117 0 181.5 -59t64.5 -174v-365h-78v86q-74 -98 -205 -98q-90 0 -158.5 50.5t-68.5 140.5zM219 1052.5q0 -55.5 43 -87t107 -31.5 q80 0 139 45t59 115v57q-74 23 -176 23q-82 0 -127 -33t-45 -88.5z" />
<glyph unicode="&#xab;" horiz-adv-x="1075" d="M106 524v17l334 436l78 -49l-287 -393l287 -398l-78 -49zM532 524v17l334 436l78 -49l-287 -393l287 -398l-78 -49z" />
<glyph unicode="&#xad;" horiz-adv-x="851" d="M145 561v119h562v-119h-562z" />
<glyph unicode="&#xae;" horiz-adv-x="1732" d="M111 729q0 311 221 534.5t536.5 223.5t535.5 -221.5t220 -532.5t-222 -534.5t-537.5 -223.5t-534.5 221.5t-219 532.5zM174 729q0 -291 197.5 -493.5t492.5 -202.5t496 204.5t201 495.5t-199 494t-494 203t-494.5 -205t-199.5 -496zM578 371v764h342q123 0 201.5 -60.5 t78.5 -161.5q0 -90 -56.5 -146t-152.5 -75l256 -321h-117l-241 305h-223v-305h-88zM666 760h239q90 0 146.5 39t56.5 110q0 63 -51 101.5t-142 38.5h-249v-289z" />
<glyph unicode="&#xaf;" d="M209 1253v111h627v-111h-627z" />
<glyph unicode="&#xb0;" horiz-adv-x="940" d="M154 1167q0 123 95 215.5t221 92.5t221 -92.5t95 -215.5t-95 -215t-221 -92t-221 92t-95 215zM258 1167q0 -86 61.5 -150.5t150.5 -64.5t150.5 64.5t61.5 150.5t-61.5 150.5t-150.5 64.5t-150.5 -64.5t-61.5 -150.5z" />
<glyph unicode="&#xb1;" horiz-adv-x="1253" d="M94 244l88 65q176 -236 455 -235q162 0 267.5 85t105.5 226q0 143 -115 224t-317 81h-148v96h150q170 0 279.5 82t109.5 224q0 131 -97.5 214t-253.5 83q-244 0 -407 -224l-84 52q184 270 496 270q199 0 328.5 -111.5t129.5 -277.5q0 -256 -276 -350q143 -41 230 -132.5 t87 -228.5q0 -174 -139 -293t-350 -119q-170 0 -309.5 74t-229.5 195z" />
<glyph unicode="&#xb4;" d="M406 1243l184 279l127 -64l-223 -215h-88z" />
<glyph unicode="&#xb6;" horiz-adv-x="1001" d="M111 1022q0 205 149.5 322.5t390.5 117.5h156v-1462h-111v580h-12q-252 0 -412.5 117.5t-160.5 324.5z" />
<glyph unicode="&#xb8;" d="M338 -254l188 274h90l-163 -329z" />
<glyph unicode="&#xba;" horiz-adv-x="813" d="M106 612v84h603v-84h-603zM106 1163q0 127 87.5 218.5t216.5 91.5q127 0 213 -90.5t86 -215.5q0 -127 -87 -218t-216 -91q-127 0 -213.5 90t-86.5 215zM197 1167q0 -96 61 -161.5t152 -65.5q92 0 150 64.5t58 158.5q0 96 -61 162t-151 66q-92 0 -150.5 -65t-58.5 -159z " />
<glyph unicode="&#xbb;" horiz-adv-x="1075" d="M131 137l287 393l-287 398l78 49l334 -436v-17l-334 -436zM557 137l287 393l-287 398l78 49l334 -436v-17l-334 -436z" />
<glyph unicode="&#xbf;" horiz-adv-x="1114" d="M109 391q0 186 123.5 296t318.5 132l18 260h68l27 -338l-11 -10q-205 -4 -319.5 -94t-114.5 -242q0 -133 95.5 -225t250.5 -92q229 0 404 215l75 -64q-96 -121 -210.5 -184t-272.5 -63q-203 0 -327.5 117.5t-124.5 291.5zM535 1284v178h137v-178h-137z" />
<glyph unicode="&#xc0;" horiz-adv-x="1648" d="M92 0l680 1473h105l682 -1473h-119l-187 410h-862l-186 -410h-113zM436 508h772l-385 846zM549 1812l127 64l184 -279h-88z" />
<glyph unicode="&#xc1;" horiz-adv-x="1648" d="M92 0l680 1473h105l682 -1473h-119l-187 410h-862l-186 -410h-113zM436 508h772l-385 846zM791 1597l182 279l129 -64l-225 -215h-86z" />
<glyph unicode="&#xc2;" horiz-adv-x="1648" d="M92 0l680 1473h105l682 -1473h-119l-187 410h-862l-186 -410h-113zM436 508h772l-385 846zM573 1587l209 256h84l209 -256h-98l-154 144l-155 -144h-95z" />
<glyph unicode="&#xc3;" horiz-adv-x="1648" d="M92 0l680 1473h105l682 -1473h-119l-187 410h-862l-186 -410h-113zM436 508h772l-385 846zM516 1597q29 109 70 152t106 43q39 0 135.5 -43t130.5 -43q39 0 60.5 22.5t44.5 81.5l72 -18q-29 -109 -70 -152t-107 -43q-39 0 -135 43t-131 43q-39 0 -60.5 -21.5t-43.5 -82.5 z" />
<glyph unicode="&#xc4;" horiz-adv-x="1648" d="M92 0l680 1473h105l682 -1473h-119l-187 410h-862l-186 -410h-113zM436 508h772l-385 846zM584 1597v168h143v-168h-143zM924 1597v168h143v-168h-143z" />
<glyph unicode="&#xc5;" horiz-adv-x="1648" d="M92 0l653 1417q-53 23 -88.5 71t-35.5 107q0 82 61 139.5t143 57.5t143.5 -57.5t61.5 -139.5q0 -59 -36 -107t-89 -71l654 -1417h-119l-187 410h-862l-186 -410h-113zM436 508h772l-385 846zM696 1596.5q0 -54.5 38 -92.5t90.5 -38t91 38t38.5 92.5t-38.5 92t-91 37.5 t-90.5 -37.5t-38 -92z" />
<glyph unicode="&#xc6;" horiz-adv-x="2181" d="M41 0l887 1462h1114v-100h-901v-574h807v-100h-807v-588h911v-100h-1020v410h-626l-246 -410h-119zM463 508h569v856h-55z" />
<glyph unicode="&#xc7;" horiz-adv-x="1540" d="M152 729q0 317 208.5 537.5t522.5 220.5q182 0 313 -59.5t256 -174.5l-78 -79q-221 215 -493 215q-262 0 -438.5 -187.5t-176.5 -468t178.5 -470t438.5 -189.5q154 0 270.5 56t232.5 171l74 -72q-121 -119 -252 -183t-301 -71l-141 -284l-115 55l160 231 q-287 27 -473 240t-186 512z" />
<glyph unicode="&#xc8;" horiz-adv-x="1398" d="M217 0v1462h1040v-100h-931v-574h837v-100h-837v-588h942v-100h-1051zM506 1812l127 64l184 -279h-88z" />
<glyph unicode="&#xc9;" horiz-adv-x="1398" d="M217 0v1462h1040v-100h-931v-574h837v-100h-837v-588h942v-100h-1051zM645 1597l184 279l127 -64l-223 -215h-88z" />
<glyph unicode="&#xca;" horiz-adv-x="1398" d="M217 0v1462h1040v-100h-931v-574h837v-100h-837v-588h942v-100h-1051zM479 1597l209 256h82l209 -256h-98l-154 144l-156 -144h-92z" />
<glyph unicode="&#xcb;" horiz-adv-x="1398" d="M217 0v1462h1040v-100h-931v-574h837v-100h-837v-588h942v-100h-1051zM487 1597v168h144v-168h-144zM827 1597v168h144v-168h-144z" />
<glyph unicode="&#xcc;" horiz-adv-x="571" d="M14 1812l127 64l185 -279h-88zM231 0v1462h109v-1462h-109z" />
<glyph unicode="&#xcd;" horiz-adv-x="571" d="M231 0v1462h109v-1462h-109zM246 1597l184 279l127 -64l-223 -215h-88z" />
<glyph unicode="&#xce;" horiz-adv-x="571" d="M37 1597l209 256h84l209 -256h-99l-153 144l-156 -144h-94zM231 0v1462h109v-1462h-109z" />
<glyph unicode="&#xcf;" horiz-adv-x="571" d="M45 1597v168h145v-168h-145zM231 0v1462h109v-1462h-109zM387 1597v168h143v-168h-143z" />
<glyph unicode="&#xd0;" horiz-adv-x="1695" d="M123 686v100h158v676h485q342 0 560 -207.5t218 -521t-218 -523.5t-560 -210h-485v686h-158zM389 100h377q299 0 482.5 179.5t183.5 449.5t-183.5 451.5t-482.5 181.5h-377v-576h483v-100h-483v-586z" />
<glyph unicode="&#xd1;" horiz-adv-x="1648" d="M217 0v1462h102l1010 -1272v1272h105v-1462h-82l-1030 1298v-1298h-105zM516 1597q29 109 70 152t106 43q39 0 135.5 -43t130.5 -43q39 0 60.5 22.5t44.5 81.5l72 -18q-29 -109 -70 -152t-107 -43q-39 0 -135 43t-131 43q-39 0 -60.5 -21.5t-43.5 -82.5z" />
<glyph unicode="&#xd2;" horiz-adv-x="1775" d="M152 727v4q0 309 206.5 532.5t531 223.5t529.5 -221.5t205 -530.5q1 -1 1 -2t-1 -2q0 -309 -207 -532.5t-531.5 -223.5t-529 221.5t-204.5 530.5zM266 731q0 -274 178.5 -465.5t445.5 -191.5t443 189.5t176 463.5v4q0 274 -178 466t-445.5 192t-443.5 -189.5t-176 -464.5 v-4zM610 1812l127 64l185 -279h-88z" />
<glyph unicode="&#xd3;" horiz-adv-x="1775" d="M152 727v4q0 309 206.5 532.5t531 223.5t529.5 -221.5t205 -530.5q1 -1 1 -2t-1 -2q0 -309 -207 -532.5t-531.5 -223.5t-529 221.5t-204.5 530.5zM266 731q0 -274 178.5 -465.5t445.5 -191.5t443 189.5t176 463.5v4q0 274 -178 466t-445.5 192t-443.5 -189.5t-176 -464.5 v-4zM854 1597l184 279l127 -64l-223 -215h-88z" />
<glyph unicode="&#xd4;" horiz-adv-x="1775" d="M152 727v4q0 309 206.5 532.5t531 223.5t529.5 -221.5t205 -530.5q1 -1 1 -2t-1 -2q0 -309 -207 -532.5t-531.5 -223.5t-529 221.5t-204.5 530.5zM266 731q0 -274 178.5 -465.5t445.5 -191.5t443 189.5t176 463.5v4q0 274 -178 466t-445.5 192t-443.5 -189.5t-176 -464.5 v-4zM637 1597l209 256h84l209 -256h-99l-155 144l-154 -144h-94z" />
<glyph unicode="&#xd5;" horiz-adv-x="1775" d="M152 727v4q0 309 206.5 532.5t531 223.5t529.5 -221.5t205 -530.5q1 -1 1 -2t-1 -2q0 -309 -207 -532.5t-531.5 -223.5t-529 221.5t-204.5 530.5zM266 731q0 -274 178.5 -465.5t445.5 -191.5t443 189.5t176 463.5v4q0 274 -178 466t-445.5 192t-443.5 -189.5t-176 -464.5 v-4zM580 1597q29 109 69.5 152t104.5 43q41 0 136 -43t132 -43t59.5 22.5t44.5 81.5l70 -18q-29 -109 -70 -152t-104 -43q-41 0 -136 43t-132 43t-59.5 -21.5t-45.5 -82.5z" />
<glyph unicode="&#xd6;" horiz-adv-x="1775" d="M152 727v4q0 309 206.5 532.5t531 223.5t529.5 -221.5t205 -530.5q1 -1 1 -2t-1 -2q0 -309 -207 -532.5t-531.5 -223.5t-529 221.5t-204.5 530.5zM266 731q0 -274 178.5 -465.5t445.5 -191.5t443 189.5t176 463.5v4q0 274 -178 466t-445.5 192t-443.5 -189.5t-176 -464.5 v-4zM645 1597v168h146v-168h-146zM985 1597v168h145v-168h-145z" />
<glyph unicode="&#xd8;" horiz-adv-x="1775" d="M135 -10l209 221q-193 215 -192 518q0 201 91 373t261 278.5t387 106.5q279 0 475 -172l150 158h124l-208 -224q193 -211 192 -516q0 -201 -91 -373t-261 -278.5t-387 -106.5q-279 0 -475 172l-148 -157h-127zM264 733q0 -254 154 -442l878 944q-172 156 -411 156 q-268 0 -444.5 -189.5t-176.5 -468.5zM479 227q172 -156 412 -155q268 0 444 189.5t176 467.5q0 254 -153 442z" />
<glyph unicode="&#xd9;" horiz-adv-x="1587" d="M195 608v854h108v-844q0 -258 131 -400t365 -142q227 0 356 136t129 396v854h109v-841q0 -307 -163 -475.5t-435 -168.5q-270 0 -435 165t-165 466zM535 1802l127 64l184 -279h-88z" />
<glyph unicode="&#xda;" horiz-adv-x="1587" d="M195 608v854h108v-844q0 -258 131 -400t365 -142q227 0 356 136t129 396v854h109v-841q0 -307 -163 -475.5t-435 -168.5q-270 0 -435 165t-165 466zM741 1587l185 279l127 -64l-224 -215h-88z" />
<glyph unicode="&#xdb;" horiz-adv-x="1587" d="M195 608v854h108v-844q0 -258 131 -400t365 -142q227 0 356 136t129 396v854h109v-841q0 -307 -163 -475.5t-435 -168.5q-270 0 -435 165t-165 466zM543 1587l209 256h84l208 -256h-98l-153 144l-156 -144h-94z" />
<glyph unicode="&#xdc;" horiz-adv-x="1587" d="M195 608v854h108v-844q0 -258 131 -400t365 -142q227 0 356 136t129 396v854h109v-841q0 -307 -163 -475.5t-435 -168.5q-270 0 -435 165t-165 466zM551 1587v168h145v-168h-145zM893 1587v168h143v-168h-143z" />
<glyph unicode="&#xdd;" horiz-adv-x="1495" d="M68 1462h135l547 -786l548 786h132l-627 -880v-582h-109v580zM711 1587l184 279l127 -64l-223 -215h-88z" />
<glyph unicode="&#xde;" horiz-adv-x="1404" d="M217 0v1462h109v-266h422q244 0 393 -120t149 -328q0 -221 -163.5 -345t-405.5 -124h-395v-279h-109zM326 379h401q205 0 330 99.5t125 262.5q0 172 -120 264.5t-323 92.5h-413v-719z" />
<glyph unicode="&#xdf;" horiz-adv-x="1294" d="M195 0v1044q0 219 124.5 357.5t333.5 138.5q186 0 301 -104.5t115 -264.5q0 -143 -95 -245.5t-233 -153.5q184 -31 303 -124t119 -251q0 -188 -150.5 -294.5t-408.5 -106.5v90q211 4 330 82t119 225q0 272 -449 322v86q354 109 354 366q0 121 -86 199t-225 78 q-154 0 -252 -108.5t-98 -291.5v-1044h-102z" />
<glyph unicode="&#xe0;" horiz-adv-x="1198" d="M106 309v4q0 164 127 255t338 91q180 0 355 -45v45q0 160 -92.5 243t-259 83t-334.5 -84l-37 88q199 92 379 92q209 0 326.5 -107.5t117.5 -309.5v-664h-100v178q-145 -203 -408 -203q-164 0 -288 88t-124 246zM215 315q0 -111 91 -177t218 -66q168 0 286 92t118 235v121 q-188 47 -363 47q-166 0 -258 -67.5t-92 -180.5v-4zM328 1458l127 64l184 -279h-88z" />
<glyph unicode="&#xe1;" horiz-adv-x="1198" d="M106 309v4q0 164 127 255t338 91q180 0 355 -45v45q0 160 -92.5 243t-259 83t-334.5 -84l-37 88q199 92 379 92q209 0 326.5 -107.5t117.5 -309.5v-664h-100v178q-145 -203 -408 -203q-164 0 -288 88t-124 246zM215 315q0 -111 91 -177t218 -66q168 0 286 92t118 235v121 q-188 47 -363 47q-166 0 -258 -67.5t-92 -180.5v-4zM535 1243l184 279l127 -64l-223 -215h-88z" />
<glyph unicode="&#xe2;" horiz-adv-x="1198" d="M106 309v4q0 164 127 255t338 91q180 0 355 -45v45q0 160 -92.5 243t-259 83t-334.5 -84l-37 88q199 92 379 92q209 0 326.5 -107.5t117.5 -309.5v-664h-100v178q-145 -203 -408 -203q-164 0 -288 88t-124 246zM215 315q0 -111 91 -177t218 -66q168 0 286 92t118 235v121 q-188 47 -363 47q-166 0 -258 -67.5t-92 -180.5v-4zM354 1243l209 254h84l209 -254h-98l-154 141l-155 -141h-95z" />
<glyph unicode="&#xe3;" horiz-adv-x="1198" d="M106 309v4q0 164 127 255t338 91q180 0 355 -45v45q0 160 -92.5 243t-259 83t-334.5 -84l-37 88q199 92 379 92q209 0 326.5 -107.5t117.5 -309.5v-664h-100v178q-145 -203 -408 -203q-164 0 -288 88t-124 246zM215 315q0 -111 91 -177t218 -66q168 0 286 92t118 235v121 q-188 47 -363 47q-166 0 -258 -67.5t-92 -180.5v-4zM297 1243q29 109 70 152t106 43q41 0 137.5 -43t128.5 -43q37 0 59.5 21.5t45.5 82.5l71 -18q-31 -109 -70.5 -152t-105.5 -43q-41 0 -137 43t-129 43q-39 0 -60.5 -22.5t-43.5 -81.5z" />
<glyph unicode="&#xe4;" horiz-adv-x="1198" d="M106 309v4q0 164 127 255t338 91q180 0 355 -45v45q0 160 -92.5 243t-259 83t-334.5 -84l-37 88q199 92 379 92q209 0 326.5 -107.5t117.5 -309.5v-664h-100v178q-145 -203 -408 -203q-164 0 -288 88t-124 246zM215 315q0 -111 91 -177t218 -66q168 0 286 92t118 235v121 q-188 47 -363 47q-166 0 -258 -67.5t-92 -180.5v-4zM362 1243v166h146v-166h-146zM705 1243v166h143v-166h-143z" />
<glyph unicode="&#xe5;" horiz-adv-x="1198" d="M106 309v4q0 164 127 255t338 91q180 0 355 -45v45q0 160 -92.5 243t-259 83t-334.5 -84l-37 88q199 92 379 92q209 0 326.5 -107.5t117.5 -309.5v-664h-100v178q-145 -203 -408 -203q-164 0 -288 88t-124 246zM215 315q0 -111 91 -177t218 -66q168 0 286 92t118 235v121 q-188 47 -363 47q-166 0 -258 -67.5t-92 -180.5v-4zM401 1436q0 82 61.5 139t143.5 57t143.5 -57t61.5 -139t-61.5 -139.5t-143.5 -57.5t-143.5 57.5t-61.5 139.5zM477 1434.5q0 -52.5 37 -90t91 -37.5t92 37.5t38 90t-38 91.5t-92 39t-91 -39t-37 -91.5z" />
<glyph unicode="&#xe6;" horiz-adv-x="1992" d="M106 311q0 166 125 257t330 91q162 0 336 -45v45q0 160 -88 243t-250 83q-152 0 -319 -84l-37 88q195 92 362 92q332 0 404 -266q66 125 179.5 200t250.5 75q219 0 354 -159t135 -401q0 -23 -2 -38h-882q14 -193 133.5 -306.5t283.5 -113.5q209 0 365 166l72 -62 q-186 -201 -441 -201q-133 0 -246.5 61.5t-185.5 172.5q-203 -233 -477 -234q-162 0 -282 88t-120 248zM215 317q0 -113 86 -179t213 -66q246 0 426 223q-43 109 -45 227q-199 45 -340 45q-160 0 -250 -67.5t-90 -182.5zM1004 584h774q-12 174 -110.5 293.5t-272.5 119.5 q-156 0 -266.5 -118.5t-124.5 -294.5z" />
<glyph unicode="&#xe7;" horiz-adv-x="1191" d="M121 530q0 227 158.5 393.5t384.5 166.5q240 0 426 -195l-72 -76q-172 176 -356 176q-180 0 -305.5 -134t-125.5 -326q0 -195 128 -329t311 -134q199 0 358 176l72 -62q-180 -201 -410 -211l-141 -284l-115 55l160 234q-203 27 -338 184t-135 366z" />
<glyph unicode="&#xe8;" horiz-adv-x="1218" d="M121 530v5q0 233 145.5 394t360.5 161q219 0 354 -159t135 -399v-4q0 -20 -2 -36h-885q14 -193 135 -306.5t283 -113.5q209 0 367 166l69 -62q-184 -201 -440 -201q-215 0 -368.5 156.5t-153.5 398.5zM229 584h777q-14 174 -111.5 293.5t-271.5 119.5q-158 0 -269 -118.5 t-125 -294.5zM375 1458l127 64l184 -279h-88z" />
<glyph unicode="&#xe9;" horiz-adv-x="1218" d="M121 530v5q0 233 145.5 394t360.5 161q219 0 354 -159t135 -399v-4q0 -20 -2 -36h-885q14 -193 135 -306.5t283 -113.5q209 0 367 166l69 -62q-184 -201 -440 -201q-215 0 -368.5 156.5t-153.5 398.5zM229 584h777q-14 174 -111.5 293.5t-271.5 119.5q-158 0 -269 -118.5 t-125 -294.5zM537 1243l184 279l127 -64l-223 -215h-88z" />
<glyph unicode="&#xea;" horiz-adv-x="1218" d="M121 530v5q0 233 145.5 394t360.5 161q219 0 354 -159t135 -399v-4q0 -20 -2 -36h-885q14 -193 135 -306.5t283 -113.5q209 0 367 166l69 -62q-184 -201 -440 -201q-215 0 -368.5 156.5t-153.5 398.5zM229 584h777q-14 174 -111.5 293.5t-271.5 119.5q-158 0 -269 -118.5 t-125 -294.5zM371 1243l209 254h82l208 -254h-98l-154 141l-155 -141h-92z" />
<glyph unicode="&#xeb;" horiz-adv-x="1218" d="M121 530v5q0 233 145.5 394t360.5 161q219 0 354 -159t135 -399v-4q0 -20 -2 -36h-885q14 -193 135 -306.5t283 -113.5q209 0 367 166l69 -62q-184 -201 -440 -201q-215 0 -368.5 156.5t-153.5 398.5zM229 584h777q-14 174 -111.5 293.5t-271.5 119.5q-158 0 -269 -118.5 t-125 -294.5zM379 1243v166h143v-166h-143zM719 1243v166h143v-166h-143z" />
<glyph unicode="&#xec;" horiz-adv-x="518" d="M-10 1458l127 64l184 -279h-88zM209 0v1065h102v-1065h-102z" />
<glyph unicode="&#xed;" horiz-adv-x="518" d="M209 0v1065h102v-1065h-102zM219 1243l184 279l127 -64l-223 -215h-88z" />
<glyph unicode="&#xee;" horiz-adv-x="518" d="M8 1243l209 254h84l209 -254h-98l-156 141l-154 -141h-94zM209 0v1065h102v-1065h-102z" />
<glyph unicode="&#xef;" horiz-adv-x="518" d="M16 1243v166h146v-166h-146zM209 0v1065h102v-1065h-102zM356 1243v166h146v-166h-146z" />
<glyph unicode="&#xf0;" horiz-adv-x="1310" d="M121 510q0 221 148.5 363.5t353.5 142.5q199 0 368 -133l-305 436l-278 -143l-62 75l287 140l-94 135h131l57 -86l205 104l57 -76l-213 -104l230 -336q92 -137 136 -253t44 -257q0 -223 -151.5 -383t-389.5 -160q-223 0 -373.5 158t-150.5 377zM231 504q0 -174 123 -303 t301 -129q184 0 302 128t118 308q0 172 -127 294t-313 122q-182 0 -293 -119t-111 -301z" />
<glyph unicode="&#xf1;" horiz-adv-x="1280" d="M195 0v1065h102v-199q127 223 385 224q197 0 311.5 -122t114.5 -317v-651h-102v633q0 168 -90.5 266t-249 98t-264 -108.5t-105.5 -272.5v-616h-102zM340 1243q31 109 71 152t105 43q39 0 135.5 -43t130.5 -43q39 0 60.5 21.5t46.5 82.5l69 -18q-29 -109 -69.5 -152 t-106.5 -43q-39 0 -135 43t-131 43q-37 0 -59.5 -22.5t-44.5 -81.5z" />
<glyph unicode="&#xf2;" horiz-adv-x="1335" d="M121 528v4q0 227 157.5 392.5t392 165.5t390.5 -163t156 -390v-5q0 -227 -158 -392t-392.5 -165t-390 163t-155.5 390zM231 532q0 -193 128 -326.5t311 -133.5q188 0 312 133t124 323v4q0 193 -128 328t-312 135q-186 0 -310.5 -134t-124.5 -324v-5zM399 1458l127 64 l185 -279h-88z" />
<glyph unicode="&#xf3;" horiz-adv-x="1335" d="M121 528v4q0 227 157.5 392.5t392 165.5t390.5 -163t156 -390v-5q0 -227 -158 -392t-392.5 -165t-390 163t-155.5 390zM231 532q0 -193 128 -326.5t311 -133.5q188 0 312 133t124 323v4q0 193 -128 328t-312 135q-186 0 -310.5 -134t-124.5 -324v-5zM627 1243l184 279 l127 -64l-223 -215h-88z" />
<glyph unicode="&#xf4;" horiz-adv-x="1335" d="M121 528v4q0 227 157.5 392.5t392 165.5t390.5 -163t156 -390v-5q0 -227 -158 -392t-392.5 -165t-390 163t-155.5 390zM231 532q0 -193 128 -326.5t311 -133.5q188 0 312 133t124 323v4q0 193 -128 328t-312 135q-186 0 -310.5 -134t-124.5 -324v-5zM418 1243l209 254h84 l209 -254h-99l-155 141l-154 -141h-94z" />
<glyph unicode="&#xf5;" horiz-adv-x="1335" d="M121 528v4q0 227 157.5 392.5t392 165.5t390.5 -163t156 -390v-5q0 -227 -158 -392t-392.5 -165t-390 163t-155.5 390zM231 532q0 -193 128 -326.5t311 -133.5q188 0 312 133t124 323v4q0 193 -128 328t-312 135q-186 0 -310.5 -134t-124.5 -324v-5zM358 1243 q31 109 72 152t105 43q43 0 138 -43t130 -43q37 0 58.5 21.5t45.5 82.5l70 -18q-29 -109 -70 -152t-104 -43q-43 0 -139.5 43t-128.5 43q-37 0 -59.5 -22.5t-45.5 -81.5z" />
<glyph unicode="&#xf6;" horiz-adv-x="1335" d="M121 528v4q0 227 157.5 392.5t392 165.5t390.5 -163t156 -390v-5q0 -227 -158 -392t-392.5 -165t-390 163t-155.5 390zM231 532q0 -193 128 -326.5t311 -133.5q188 0 312 133t124 323v4q0 193 -128 328t-312 135q-186 0 -310.5 -134t-124.5 -324v-5zM426 1243v166h143 v-166h-143zM766 1243v166h145v-166h-145z" />
<glyph unicode="&#xf8;" horiz-adv-x="1335" d="M90 -10l164 172q-133 160 -133 368q0 229 157.5 394.5t391.5 165.5q201 0 350 -127l108 116h119l-168 -174q137 -158 138 -370q0 -229 -158 -394.5t-393 -165.5q-201 0 -349 125l-108 -110h-119zM229 535q0 -172 99 -299l626 649q-123 113 -288 112q-188 0 -312.5 -132.5 t-124.5 -329.5zM383 178q121 -109 287 -108q190 0 314 132t124 328q0 172 -100 299z" />
<glyph unicode="&#xf9;" horiz-adv-x="1280" d="M174 414v651h102v-633q0 -166 89.5 -264t248 -98t264 107.5t105.5 271.5v616h102v-1065h-102v199q-127 -223 -383 -224q-199 0 -312.5 122t-113.5 317zM381 1448l127 61l184 -276h-88z" />
<glyph unicode="&#xfa;" horiz-adv-x="1280" d="M174 414v651h102v-633q0 -166 89.5 -264t248 -98t264 107.5t105.5 271.5v616h102v-1065h-102v199q-127 -223 -383 -224q-199 0 -312.5 122t-113.5 317zM580 1233l182 276l129 -61l-225 -215h-86z" />
<glyph unicode="&#xfb;" horiz-adv-x="1280" d="M174 414v651h102v-633q0 -166 89.5 -264t248 -98t264 107.5t105.5 271.5v616h102v-1065h-102v199q-127 -223 -383 -224q-199 0 -312.5 122t-113.5 317zM393 1243l209 254h84l209 -254h-98l-156 141l-154 -141h-94z" />
<glyph unicode="&#xfc;" horiz-adv-x="1280" d="M174 414v651h102v-633q0 -166 89.5 -264t248 -98t264 107.5t105.5 271.5v616h102v-1065h-102v199q-127 -223 -383 -224q-199 0 -312.5 122t-113.5 317zM401 1243v166h144v-166h-144zM741 1243v166h144v-166h-144z" />
<glyph unicode="&#xfd;" horiz-adv-x="1226" d="M82 1065h119l442 -952l385 952h113l-461 -1102q-70 -164 -155 -233.5t-201 -69.5q-106 0 -211 45l34 90q82 -39 183 -39q84 0 144.5 56.5t119.5 193.5zM588 1233l182 276l129 -61l-225 -215h-86z" />
<glyph unicode="&#xfe;" horiz-adv-x="1378" d="M195 -334v1860h102v-699q174 262 438 263q205 0 361.5 -154t156.5 -401q0 -250 -156.5 -405t-361.5 -155q-272 0 -438 254v-563h-102zM291 532q0 -201 130 -329.5t304 -128.5q180 0 299 122.5t119 333.5q0 205 -122 333t-296 128t-304 -130t-130 -329z" />
<glyph unicode="&#xff;" horiz-adv-x="1226" d="M82 1065h119l442 -952l385 952h113l-461 -1102q-70 -164 -155 -233.5t-201 -69.5q-106 0 -211 45l34 90q82 -39 183 -39q84 0 144.5 56.5t119.5 193.5zM373 1243v166h143v-166h-143zM713 1243v166h143v-166h-143z" />
<glyph unicode="&#x131;" horiz-adv-x="518" d="M209 0v1065h102v-1065h-102z" />
<glyph unicode="&#x141;" horiz-adv-x="1353" d="M123 612v101l158 47v702h106v-667l469 143v-100l-469 -144v-594h860v-100h-966v659z" />
<glyph unicode="&#x142;" horiz-adv-x="645" d="M113 651v105l159 49v721h103v-690l157 49v-105l-157 -49v-731h-103v702z" />
<glyph unicode="&#x152;" horiz-adv-x="2406" d="M152 729q0 313 219 523t559 210h1335v-100h-901v-574h807v-100h-807v-588h911v-100h-1345q-340 0 -559 208t-219 521zM266 733.5q0 -270.5 182.5 -452t481.5 -181.5h325v1262h-325q-299 0 -481.5 -179t-182.5 -449.5z" />
<glyph unicode="&#x153;" horiz-adv-x="2203" d="M121 530q0 229 157.5 394.5t389.5 165.5q166 0 296 -89.5t193 -236.5q59 150 180 238t275 88q221 0 354 -159t133 -401q0 -23 -2 -38h-883q14 -193 134 -306.5t284 -113.5q209 0 365 166l71 -62q-186 -201 -436 -201q-158 0 -285.5 88.5t-189.5 239.5 q-63 -147 -194.5 -237.5t-298.5 -90.5q-229 0 -386 164t-157 391zM231 534.5q0 -194.5 128 -328.5t311 -134q188 0 312 132t124 326.5t-128 329.5t-312 135q-186 0 -310.5 -133t-124.5 -327.5zM1214 584h775q-12 174 -110.5 293.5t-272.5 119.5q-156 0 -267 -118.5 t-125 -294.5z" />
<glyph unicode="&#x160;" horiz-adv-x="1335" d="M123 213l72 82q123 -115 243.5 -166t280.5 -51q162 0 265 82t103 209v4q0 121 -86 191.5t-327 119.5q-262 51 -377 147.5t-115 262.5v6q0 162 133.5 272.5t335.5 110.5q156 0 271.5 -43t230.5 -133l-70 -86q-188 164 -436 163q-158 0 -257 -78.5t-99 -195.5v-4 q0 -125 88 -197.5t338 -122.5q252 -53 365.5 -148t113.5 -255v-4q0 -176 -135 -287.5t-348 -111.5q-328 0 -590 233zM432 1853h98l156 -143l154 143h94l-209 -256h-84z" />
<glyph unicode="&#x161;" horiz-adv-x="1036" d="M102 133l62 82q180 -139 381 -139q111 0 184.5 56t73.5 147v4q0 86 -73 129t-210 84q-74 20 -106.5 30.5t-94 38t-89 53t-52 70.5t-24.5 100v5q0 129 98 210.5t254 81.5q203 0 377 -116l-54 -86q-162 106 -327 106q-109 0 -176.5 -52t-67.5 -132v-4q0 -35 18.5 -63.5 t42 -48t68.5 -39t78 -30t90 -26.5q80 -25 130 -43.5t107.5 -53t86 -86t28.5 -116.5v-4q0 -141 -105.5 -226t-262.5 -85q-115 0 -233 42.5t-204 110.5zM274 1497h99l153 -141l156 141h92l-209 -254h-82z" />
<glyph unicode="&#x178;" horiz-adv-x="1495" d="M68 1462h135l547 -786l548 786h132l-627 -880v-582h-109v580zM506 1587v168h143v-168h-143zM846 1587v168h143v-168h-143z" />
<glyph unicode="&#x17d;" horiz-adv-x="1435" d="M141 0v61l1002 1303h-965v98h1118v-61l-999 -1303h999v-98h-1155zM479 1853h99l153 -143l154 143h94l-209 -256h-82z" />
<glyph unicode="&#x17e;" horiz-adv-x="1157" d="M121 0v59l770 914h-741v92h892v-57l-768 -916h768v-92h-921zM346 1497h98l156 -141l154 141h94l-209 -254h-84z" />
<glyph unicode="&#x192;" horiz-adv-x="1056" d="M86 -2v92q41 -8 96 -8q139 0 170 170l103 551h-228v94h246l53 283q29 156 101.5 224.5t197.5 68.5q86 0 156 -21v-92q-82 20 -145 20q-86 0 -132.5 -48t-66.5 -158l-51 -277h323v-94h-342l-104 -557q-25 -131 -91.5 -193.5t-183.5 -62.5q-49 0 -102 8z" />
<glyph unicode="&#x2c6;" d="M272 1243l209 254h82l209 -254h-98l-154 141l-155 -141h-93z" />
<glyph unicode="&#x2c7;" d="M272 1497h99l153 -141l156 141h92l-209 -254h-82z" />
<glyph unicode="&#x2d8;" d="M244 1497h82q39 -152 196.5 -151.5t196.5 151.5h82q-8 -121 -85 -189.5t-193.5 -68.5t-193.5 68.5t-85 189.5z" />
<glyph unicode="&#x2d9;" d="M446 1243v170h152v-170h-152z" />
<glyph unicode="&#x2da;" d="M317 1436q0 82 61.5 139t143.5 57t143.5 -57t61.5 -139t-61.5 -139.5t-143.5 -57.5t-143.5 57.5t-61.5 139.5zM393 1434.5q0 -52.5 37 -90t92.5 -37.5t92 37.5t36.5 90t-36.5 91.5t-92 39t-92.5 -39t-37 -91.5z" />
<glyph unicode="&#x2db;" d="M391 -119q0 72 29 139h90q-12 -55 -12 -116q0 -170 245 -183v-63q-15 -1 -30 -1q-150 0 -232 57q-90 63 -90 167z" />
<glyph unicode="&#x2dc;" d="M213 1243q29 109 70 152t106 43q41 0 137.5 -43t128.5 -43q39 0 60.5 21.5t44.5 82.5l71 -18q-29 -109 -69.5 -152t-106.5 -43q-41 0 -137 43t-129 43q-39 0 -60.5 -22.5t-43.5 -81.5z" />
<glyph unicode="&#x2dd;" d="M213 1243l186 279l115 -62l-211 -217h-90zM530 1243l187 279l114 -62l-210 -217h-91z" />
<glyph unicode="&#x3a9;" horiz-adv-x="1511" d="M102 971v94h154v104q0 172 84 267.5t233 95.5q86 0 160 -27v-96q-88 29 -160 29q-215 0 -215 -271v-102h373v-94h-373v-971h-102v971h-154zM858 971v94h156v104q0 172 83 267.5t234 95.5q86 0 158 -27v-96q-88 29 -158 29q-215 0 -215 -271v-102h371v-94h-371v-971h-102 v971h-156z" />
<glyph unicode="&#x3bc;" horiz-adv-x="1775" d="M152 729q0 201 91 373t261 278.5t387 106.5q324 0 528.5 -221.5t204.5 -532.5q0 -178 -74.5 -336.5t-208.5 -265.5l355 -334v-8h-156l-297 274q-164 -88 -358 -88q-324 0 -528.5 221.5t-204.5 532.5zM266 733.5q0 -276.5 178.5 -468t445.5 -191.5t443 189.5t176 466 t-178 468t-445.5 191.5t-443.5 -189.5t-176 -466z" />
<glyph unicode="&#x3c0;" horiz-adv-x="1732" d="M111 729q0 311 221 534.5t536.5 223.5t535.5 -221.5t220 -532.5t-222 -534.5t-537.5 -223.5t-534.5 221.5t-219 532.5zM174 729q0 -291 197.5 -493.5t492.5 -202.5t496 204.5t201 495.5t-199 494t-494 203t-494.5 -205t-199.5 -496zM618 365v765h295q137 0 218 -63 t81 -178q0 -125 -90 -190.5t-223 -65.5h-188v-268h-93zM711 719h190q100 0 158.5 43t58.5 121q0 162 -211 161h-196v-325z" />
<glyph unicode="&#x2000;" horiz-adv-x="937" />
<glyph unicode="&#x2001;" horiz-adv-x="1875" />
<glyph unicode="&#x2002;" horiz-adv-x="937" />
<glyph unicode="&#x2003;" horiz-adv-x="1875" />
<glyph unicode="&#x2004;" horiz-adv-x="624" />
<glyph unicode="&#x2005;" horiz-adv-x="468" />
<glyph unicode="&#x2006;" horiz-adv-x="311" />
<glyph unicode="&#x2007;" horiz-adv-x="311" />
<glyph unicode="&#x2008;" horiz-adv-x="233" />
<glyph unicode="&#x2009;" horiz-adv-x="374" />
<glyph unicode="&#x200a;" horiz-adv-x="102" />
<glyph unicode="&#x2010;" horiz-adv-x="851" d="M145 561v119h562v-119h-562z" />
<glyph unicode="&#x2011;" horiz-adv-x="851" d="M145 561v119h562v-119h-562z" />
<glyph unicode="&#x2012;" horiz-adv-x="851" d="M145 561v119h562v-119h-562z" />
<glyph unicode="&#x2013;" horiz-adv-x="1101" d="M145 565v109h811v-109h-811z" />
<glyph unicode="&#x2014;" horiz-adv-x="1873" d="M145 565v109h1586v-109h-1586z" />
<glyph unicode="&#x2018;" horiz-adv-x="479" d="M162 1071v156q0 98 39 154.5t133 91.5l24 -52q-68 -37 -94 -74q-23 -33 -23 -82q0 -8 1 -16h57v-178h-137z" />
<glyph unicode="&#x2019;" horiz-adv-x="479" d="M121 1114q70 35 95.5 74t21.5 96h-56v178h137v-153q0 -98 -39.5 -154.5t-134.5 -93.5z" />
<glyph unicode="&#x201a;" horiz-adv-x="479" d="M111 -172q70 37 95 75t21 97h-55v178h137v-155q0 -98 -40 -154.5t-134 -91.5z" />
<glyph unicode="&#x201c;" horiz-adv-x="856" d="M162 1071v156q0 98 39 154.5t133 91.5l24 -52q-68 -37 -94 -74q-23 -33 -23 -82q0 -8 1 -16h57v-178h-137zM537 1071v156q0 98 39.5 154.5t134.5 91.5l24 -52q-70 -37 -95 -74q-22 -33 -22 -82v-16h56v-178h-137z" />
<glyph unicode="&#x201d;" horiz-adv-x="856" d="M121 1114q70 35 95 74q22 34 22 81v15h-56v178h137v-153q0 -98 -39.5 -154.5t-134.5 -93.5zM498 1114q68 35 94 74q23 34 23 81q0 7 -1 15h-57v178h139v-153q0 -98 -40 -154.5t-134 -93.5z" />
<glyph unicode="&#x201e;" horiz-adv-x="856" d="M111 -172q70 37 95 75q22 33 22 81q0 8 -1 16h-55v178h137v-155q0 -98 -40 -154.5t-134 -91.5zM487 -172q68 37 95 75q23 33 23 82q0 8 -1 15h-57v178h139v-155q0 -98 -40 -154.5t-134 -91.5z" />
<glyph unicode="&#x2020;" horiz-adv-x="856" d="M131 1079v95l260 -15l-14 303h104l-16 -303l260 15v-95l-262 15l12 -596h-92l10 596z" />
<glyph unicode="&#x2021;" horiz-adv-x="897" d="M152 289v94l262 -14l-11 362l11 363l-262 -15v95l260 -15l-15 303h105l-15 -303l258 15v-95l-260 15l11 -363l-11 -362l260 14v-94l-258 14l15 -303h-105l15 303z" />
<glyph unicode="&#x2022;" horiz-adv-x="980" d="M231 735.5q0 106.5 77 183t183.5 76.5t182.5 -76.5t76 -183t-76 -182.5t-182.5 -76t-183.5 76t-77 182.5z" />
<glyph unicode="&#x2026;" horiz-adv-x="1419" d="M172 0v174h133v-174h-133zM643 0v174h133v-174h-133zM1116 0v174h133v-174h-133z" />
<glyph unicode="&#x202f;" horiz-adv-x="374" />
<glyph unicode="&#x2030;" horiz-adv-x="2506" d="M115 1103.5q0 153.5 91 264.5t232.5 111t230.5 -109.5t89 -261.5q0 -156 -90 -266.5t-234 -110.5q-139 0 -229 109.5t-90 263zM223 1108q0 -125 62.5 -206t152.5 -81q92 0 151.5 80t59.5 203t-62.5 204t-152.5 81q-92 0 -151.5 -80t-59.5 -201zM268 0l1073 1462h113 l-1073 -1462h-113zM963 354q0 156 91 266.5t232 110.5t230.5 -109.5t89.5 -263t-90.5 -264t-233.5 -110.5q-139 0 -229 109t-90 261zM1071 358.5q0 -122.5 62.5 -203.5t152.5 -81q92 0 151.5 79.5t59.5 200.5q0 125 -62.5 206t-152.5 81q-92 0 -151.5 -80t-59.5 -202.5z M1749 354q0 156 90 266.5t234 110.5q139 0 229 -109.5t90 -263t-91 -264t-232.5 -110.5t-230.5 109t-89 261zM1858 358.5q0 -122.5 62 -203.5t153 -81q92 0 151.5 79.5t59.5 200.5q0 125 -62.5 206t-153.5 81q-92 0 -151 -80t-59 -202.5z" />
<glyph unicode="&#x2039;" horiz-adv-x="649" d="M106 524v17l334 436l78 -49l-287 -393l287 -398l-78 -49z" />
<glyph unicode="&#x203a;" horiz-adv-x="649" d="M131 137l287 393l-287 398l78 49l334 -436v-17l-334 -436z" />
<glyph unicode="&#x2044;" horiz-adv-x="856" d="M-139 -205l977 1788h112l-977 -1788h-112z" />
<glyph unicode="&#x205f;" horiz-adv-x="468" />
<glyph unicode="&#x2122;" horiz-adv-x="1439" d="M55 1391v71h494v-71h-211v-572h-72v572h-211zM696 819v643h76l252 -383l250 383h76v-643h-74v514l-248 -372h-10l-250 372v-514h-72z" />
<glyph unicode="&#x221a;" horiz-adv-x="2031" d="M102 971v94h154v104q0 172 84 267.5t233 95.5q86 0 160 -27v-96q-88 29 -160 29q-215 0 -215 -271v-102h373v-94h-373v-971h-102v971h-154zM858 971v94h156v104q0 172 83 267.5t234 95.5q86 0 158 -27v-96q-88 29 -158 29q-215 0 -215 -271v-102h371v-94h-371v-971h-102 v971h-156zM1720 0v1526h103v-1526h-103z" />
<glyph unicode="&#x2248;" horiz-adv-x="2031" d="M102 971v94h154v104q0 172 84 267.5t233 95.5q86 0 160 -27v-96q-88 29 -160 29q-215 0 -215 -271v-102h373v-94h-373v-971h-102v971h-154zM858 971v94h156v104q0 172 83 267.5t234 95.5q86 0 158 -27v-96q-88 29 -158 29q-215 0 -215 -271v-102h371v-94h-371v-971h-102 v971h-156zM1708 1343v140h129v-140h-129zM1720 0v1065h103v-1065h-103z" />
<glyph unicode="&#xe000;" horiz-adv-x="1065" d="M0 1065h1065v-1065h-1065v1065z" />
<glyph unicode="&#xf8ff;" horiz-adv-x="2019" d="M211 0v1567h1601v-1567h-1601zM225 -147l13 2l14 -50l22 50h2l21 -50l14 48h13l-25 -72h-2l-23 47l-22 -47h-2zM289 455l6 -2q0 12 16 12q33 0 49 -68q8 -35 -12 -32l2 -9h60l-2 9q-14 -4 -21 20q-10 35 -10 51q0 27 18 27q10 0 25 -14l4 4q-14 29 -37 28q-33 0 -31 -49 q-14 49 -43 49q-24 1 -24 -26zM293 1090l2 -7h39l24 50q4 6 13 6l6 -31q2 -8 -2 -13t-10 -5h-5l3 -7h61l-2 7q-16 -2 -21 18l-14 72q-2 8 2 12t8 4h4l-2 8h-57q-41 0 -41 -33q0 -27 39 -30l-18 -33q-11 -20 -29 -18zM297 1290h1432v13h-1432v-13zM297 565h1432v15h-1432v-15 zM297 643h295v70h-31v135h31v72h-295v-129h86v57h68v-41h-50v-51h50v-43h-68v57h-86v-127zM297 991h1432v15h-1432v-15zM297 266h1432v13h-1432v-13zM326 1176q0 18 16 18t18 -10l9 -39h-13q-30 0 -30 31zM342 -147l12 2l17 -50l20 50h2l21 -50l14 48h12l-24 -72h-2l-23 47 l-20 -47h-2zM459 -147l14 2l14 -50l21 50h2l20 -50l15 48h12l-25 -72h-2l-22 47l-21 -47h-2zM510 363l2 -7h39l27 50q4 6 10 6l6 -31q2 -8 -2 -13t-8 -5h-4l2 -7h59l-2 7q-16 -2 -20 18l-15 72q-2 8 2 13t8 5h5l-3 6h-57q-41 0 -41 -33q0 -27 39 -30l-18 -33 q-11 -20 -29 -18zM526 1184q0 -12 11 -13q8 0 8 7q0 4 -3 7t-3 5q0 10 14 10q20 0 20 -24q0 -8 -4 -13q-33 4 -32 -12q0 -12 16 -12q12 0 25 10q12 -8 12 -31q0 -31 -25.5 -31t-25.5 21q0 6 6 6l2 -2q4 -2 8 -2q8 0 8 10.5t-14 10.5q-18 0 -19 -21q0 -29 33 -29q53 0 53 41 q0 25 -28 35q10 6 10 19q0 33 -45 32q-27 1 -27 -24zM543 449q0 18 17.5 18t19.5 -10l6 -39h-13q-30 0 -30 31zM545 1151q0 6 8 6q10 0 14 -2q-6 -8 -14 -8t-8 4zM563 96h37v4l-4 11l16 16q4 4 9 4v-18q0 -6 -3.5 -9.5t-7.5 -3.5h-2v-4h37v4q-12 2 -12 13v41l12 12v4h-37v-4 q12 0 13 -12v-19q-4 0 -9 4l-16 17l2 10v4h-31v-4q12 -2 19 -10l20 -19l-26 -26l-17 -11v-4zM578 -211q0 8 8 8t8 -8t-8 -8t-8 8zM612 -147h62v-13h-25v-57h-12v57h-25v13zM657 836q0 -37 28 -60.5t71 -23.5h63v-39h-31v-70h168v70h-28v135h28v72h-200q-43 0 -71 -24.5 t-28 -59.5zM684 96h23l14 25q6 8 14 8v-18l-10 -11v-4h35v4q-10 0 -10 11v41l10 14v4h-37q-27 0 -27 -20q0 -10 19 -19l-15 -20q-8 -10 -16 -11v-4zM692 -147l13 2l22 -33l18 31h15l-27 -41v-29h-12v29zM713 150q0 14 14 14q8 0 8 -10v-21h-6q-16 1 -16 17zM719 1094 q0 -8 10 -16.5t21 -8.5q20 0 31.5 14.5t21.5 14.5q8 -16 24 -17q8 0 9 7q0 18 -27 20q-8 4 -10 29.5t-12.5 48t-38.5 22.5q-10 0 -18.5 -8t-8.5 -14q0 -10 10 -10q8 0 8 12t10.5 12t14.5 -16.5t9 -40t22 -35.5q-18 0 -30.5 -14.5t-19.5 -14.5q-10 0 -10 9q0 4 2 7t2 5 q0 10 -10 10t-10 -16zM725 430q0 -31 22.5 -52.5t51.5 -21.5h65l-2 9q-14 -4 -20 20l-17 64q-6 18 17 22l-2 6h-64q-51 0 -51 -47zM748 432q0 35 28 35h15q8 -2 12 -14l18 -72q0 -16 -8 -16h-10q-25 0 -40 21t-15 46zM768 825.5q0 22.5 29 22.5h22v-45h-22q-29 0 -29 22.5z M788 -147q47 6 48 -25q0 -25 -35 -25v-20h-13v70zM801 -160v-26q23 0 22 12q1 18 -22 14zM805 133q0 -39 42 -39t42 39t-42 39t-42 -39zM821 133q0 35 24.5 35t24.5 -35t-24.5 -35t-24.5 35zM850 1405l4 -23h64v4l-9 5q-2 2 -2 6v45q2 10 11 10v4h-62l-4 -20l4 -2 q6 16 18 16h9q10 0 10 -6v-21h-10l-13 11h-4v-29h4q0 14 13 14h10v-24q0 -6 -10 -6h-9l-20 18zM862 -184q0 39 39 39q14 0 23.5 -11.5t9.5 -25.5q0 -37 -35 -37q-16 0 -26.5 10.5t-10.5 24.5zM875 -182.5q0 -26.5 23.5 -26.5t23.5 25q0 29 -23.5 28.5t-23.5 -27zM922 1167h8 q-2 27 26 27h9q10 0 12 -12l6 -33h-8l-25 18h-6l10 -47h7q-2 23 16 23h8l6 -35q4 -8 -1 -13t-9 -5h-4l2 -7h61l-2 7q-16 -2 -20 18l-14 72q-2 8 2 12t8 4h4l-2 8h-94v-37zM924 166q10 0 16 -12l16 -25v-16l-10 -13v-4h35v4q-10 0 -10 13v16l16 25q8 12 17 12v4h-33v-4l2 -12 l-12 -19l-13 19l6 12v4h-30v-4zM940 477l2 -6q14 0 19 -20l16 -95l6 -2l64 92l12 -61q2 -10 -1 -16t-7 -6h-4l2 -7h43l-2 7q-12 0 -19 22l-14 66q-2 8 2 14t10 6h4l-2 6h-29l-61 -88l-10 62q-4 16 14 20l-2 6h-43zM961 -184q0 16 11 27.5t29 11.5q12 0 25 -9l-4 -12 q-8 10 -23 10q-27 0 -26 -28q0 -25 28 -25q4 0 13 4v15h-19v10h31v-31q-12 -8 -27 -8q-38 0 -38 35zM965 1382h36v4q-12 0 -12 11v22h37v-22q-2 -11 -10 -11v-4h37v4q-12 -2 -13 11v45l13 10v4h-37v-2v-2l8 -4q2 -2 2 -6v-19h-37v19q2 10 12 10v2v2h-36v-4l8 -4q2 -2 2 -6 v-45l-10 -11v-4zM1036 848h25l78 -96v-39h-29v-70h168v70h-31v41l78 94h29v72h-170v-72h24l-32 -47l-31 47h20v72h-129v-72zM1061 -147q49 6 49 -23q0 -14 -16 -20l22 -27h-14l-19 22h-10v-22h-12v70zM1073 -160v-24q25 -2 25 12q0 18 -25 12zM1090 1434h4q10 18 22 18 q6 0 6 -6v-49q-2 -11 -10 -11v-4h35v4l-8 5q-2 2 -2 6v49q0 6 6 6l20 -18h4q0 16 -2 24q-4 -2 -34.5 -2t-38.5 2zM1098 166q8 -2 12 -14l27 -56h2q2 -2 2 0l16 33l19 -33h2l26 56q2 8 6 11t7 3h2v4h-33v-4l4 -12l-19 -39l-10 20l8 17l13 14v4h-54l3 -4q6 0 14 -14l6 -11 l-14 -26l-17 37l4 14v4h-26v-4zM1135 -217l30 72h4l35 -72h-14l-8 16h-29l-6 -16h-12zM1141 1184q0 -12 10 -13q8 0 8 7q0 4 -3 7t-3 5q0 10 14 10q20 0 21 -24q0 -8 -4 -13q-33 4 -33 -12q0 -12 16 -12q12 0 23 10q14 -8 14 -31q0 -31 -25.5 -31t-25.5 21q0 6 6 6l2 -2 q4 -2 8 -2q8 0 8.5 10.5t-14.5 10.5q-18 0 -18 -21q0 -29 33 -29q53 0 53 41q0 25 -31 35q12 6 12 19q0 33 -45 32q-26 1 -26 -24zM1155 145q-5 10 -5 15.5t5 5.5q10 -1 0 -21zM1157 -192h21l-11 24zM1159 477l2 -6q18 2 23 -20l8 -39q12 -57 59 -58q41 0 41 35q0 7 -2 17 l-10 45q-2 10 2 15t8 5h6l-2 6h-59l2 -6q16 2 20 -20l11 -43q10 -43 -23 -43q-29 0 -41 47l-10 39q-2 20 16 20v6h-51zM1159 1151q0 6 8 6q10 0 15 -2q-6 -8 -14.5 -8t-8.5 4zM1231 -147q47 6 47 -25q0 -25 -35 -25v-20h-12v70zM1243 -160v-26q23 0 23 12q0 18 -23 14z M1255 119l5 -23h63v4l-8 4q-2 2 -2 7v43q2 12 10 12v4h-61l-5 -23l5 -2q6 18 18 19h8q8 0 8 -8v-21h-8l-12 10h-4v-26h4q0 12 12 12h8v-22q0 -6 -8 -7h-8l-20 19zM1313 -147h12v-29h33v29h12v-70h-12v31h-33v-31h-12v70zM1329 1161q0 -33 22.5 -56.5t53.5 -23.5 q18 0 33.5 12.5t15.5 34.5q0 31 -24.5 55.5t-53.5 24.5q-16 0 -31.5 -12t-15.5 -35zM1354 1169q0 29 22 29q18 0 36 -24.5t18 -55.5q0 -29 -25 -28q-18 0 -34.5 24t-16.5 55zM1360 166q12 -2 12 -14v-58h6l54 58v-41l-11 -11v-4h29v4q-12 2 -12 11v41l12 14v4h-20l-52 -55 v37q0 4 3 8t6 4l4 2v4h-31v-4zM1395 434q0 -33 23.5 -56.5t54.5 -23.5q16 0 32.5 12.5t16.5 34.5q0 31 -24.5 55.5t-53.5 24.5q-16 0 -32.5 -12t-16.5 -35zM1397 -147l12 2l25 -33l18 31h14l-26 -41v-29h-13v29zM1421 791h74v57h25v-135h-31v-70h170v70h-29v135h23v-57h76 v129h-308v-129zM1421 442.5q0 30.5 23 30.5q18 0 34.5 -25.5t16.5 -56.5q0 -29 -22 -28q-18 0 -35 24.5t-17 55zM1479 -211q0 8 8 8t8 -8t-8 -8t-8 8zM1524 -184q0 16 11 27.5t25.5 11.5t22.5 -7l-4 -12q-6 8 -18 8q-25 0 -25 -26.5t27 -26.5q8 0 20 8l-2 -12q-6 -6 -20 -6 q-37 0 -37 35zM1554 1204l2 -8q16 2 21 -16l14 -72q2 -8 -2 -13t-8 -5h-4l2 -7h61l-2 7q-16 -2 -22 18l-6 33h51l6 -33q2 -8 -2 -13t-8 -5h-4l2 -7h59l-2 7q-16 -2 -20 18l-15 72q-2 8 2 12t9 4h4l-2 8h-58l2 -8q14 2 19 -16l6 -31h-51l-6 31q-2 8 2 12t8 4h4l-2 8h-60z M1599 440h9q-2 27 28 27h9q10 0 12 -12l6 -33h-8l-25 18h-6l10 -47h6q-2 23 17 23h8l6 -35q2 -8 -2 -13t-8 -5h-4l2 -7h59l-2 7q-16 -2 -20 18l-15 72q-2 8 2.5 13t8.5 5h4l-2 6h-95v-37zM1612 -184q0 39 39 39q14 0 23 -11.5t9 -25.5q0 -37 -34 -37q-14 0 -25.5 10.5 t-11.5 24.5zM1626 -182.5q0 -26.5 22.5 -26.5t22.5 25q0 29 -22.5 28.5t-22.5 -27zM1710 -217l14 72h2l27 -56l27 56h2l12 -72h-12l-6 41l-21 -43h-4l-20 43l-7 -41h-14z" />
<glyph unicode="&#xfb01;" horiz-adv-x="1275" d="M102 971v94h154v104q0 172 84 267.5t233 95.5q86 0 160 -27v-96q-88 29 -160 29q-215 0 -215 -271v-102h373v-94h-373v-971h-102v971h-154zM952 1343v140h127v-140h-127zM965 0v1065h102v-1065h-102z" />
<glyph unicode="&#xfb02;" horiz-adv-x="1275" d="M102 971v94h154v104q0 172 84 267.5t233 95.5q86 0 160 -27v-96q-88 29 -160 29q-215 0 -215 -271v-102h373v-94h-373v-971h-102v971h-154zM965 0v1526h102v-1526h-102z" />
<glyph horiz-adv-x="479" d="M172 532v179h137v-179h-137z" />
</font>
</defs>
</svg>
