<?xml version="1.0" encoding="UTF-8" standalone="no"?>
<svg width="250px" height="250px" xmlns="http://www.w3.org/2000/svg" version="1.1">
    <title>Gear</title>
    <description>Gear</description>
    <g fill="rgb(215,215,215)" fill-opacity="0.1">
        <path d="M103,8 C110,3 119,1 128,1 C137,1 146,3 153,8 L155,8 L155,29 C164,32 172,36 180,41 L197,25 L198,26 C207,29 214,33 220,40 C226,47 230,55 232,64 L233,65 L215,81 C218,87 220,94 222,102 L242,102 L242,103 C246,110 249,119 249,128 C249,137 246,146 242,153 L242,155 L220,155 C218,161 215,168 212,174 L225,188 L224,189 C222,197 218,205 211,211 C204,218 196,222 188,224 L187,225 L174,211 C168,215 161,218 154,220 L154,240 L153,240 C146,245 137,247 128,247 C119,248 110,245 103,241 L101,241 L101,222 C93,220 86,217 80,214 L66,230 L65,229 C57,228 48,224 41,218 C34,213 30,205 27,197 L26,196 L40,179 C36,171 32,163 29,155 L9,155 L9,153 C4,146 2,137 2,128 C2,119 4,110 9,103 L9,102 L27,102 C30,91 33,82 39,73 L23,59 L24,58 C26,49 30,41 36,35 C42,28 50,23 58,21 L59,20 L77,36 C85,32 93,29 102,27 L102,8 Z M125,175 C152,175 175,152 175,125 C175,97 152,75 125,75 C97,75 75,97 75,125 C75,152 97,175 125,175 Z M125,175" stroke="rgb(121,121,121)" stroke-width="2" fill="rgb(215,215,215)" stroke-opacity="0.3"></path>
    </g>
</svg>
